<svg id="visual" viewBox="0 0 900 600" width="900" height="600" xmlns="http://www.w3.org/2000/svg" xmlns:xlink="http://www.w3.org/1999/xlink" version="1.1"><g stroke-width="1" stroke-linejoin="bevel"><path d="M411 262L405 169L311 237Z" fill="#112e42" stroke="#112e42"></path><path d="M405 169L365 107L311 237Z" fill="#297ea6" stroke="#297ea6"></path><path d="M311 237L320 322L411 262Z" fill="#205a7a" stroke="#205a7a"></path><path d="M365 107L332 98L311 237Z" fill="#19435d" stroke="#19435d"></path><path d="M332 98L222 172L311 237Z" fill="#19435d" stroke="#19435d"></path><path d="M311 237L221 298L320 322Z" fill="#1d4e6b" stroke="#1d4e6b"></path><path d="M222 172L221 298L311 237Z" fill="#00101c" stroke="#00101c"></path><path d="M516 311L538 234L411 262Z" fill="#297ea6" stroke="#297ea6"></path><path d="M411 262L538 234L405 169Z" fill="#1d4e6b" stroke="#1d4e6b"></path><path d="M405 169L495 95L365 107Z" fill="#15384f" stroke="#15384f"></path><path d="M479 403L516 311L411 262Z" fill="#277297" stroke="#277297"></path><path d="M564 183L495 95L405 169Z" fill="#0c2435" stroke="#0c2435"></path><path d="M365 107L402 0L332 98Z" fill="#00101c" stroke="#00101c"></path><path d="M221 298L328 392L320 322Z" fill="#277297" stroke="#277297"></path><path d="M320 322L328 392L411 262Z" fill="#277297" stroke="#277297"></path><path d="M332 98L219 118L222 172Z" fill="#246688" stroke="#246688"></path><path d="M222 172L101 267L221 298Z" fill="#00101c" stroke="#00101c"></path><path d="M624 266L564 183L538 234Z" fill="#15384f" stroke="#15384f"></path><path d="M538 234L564 183L405 169Z" fill="#15384f" stroke="#15384f"></path><path d="M276 466L370 433L328 392Z" fill="#297ea6" stroke="#297ea6"></path><path d="M328 392L479 403L411 262Z" fill="#1d4e6b" stroke="#1d4e6b"></path><path d="M370 433L479 403L328 392Z" fill="#205a7a" stroke="#205a7a"></path><path d="M495 95L402 0L365 107Z" fill="#00101c" stroke="#00101c"></path><path d="M332 98L264 0L219 118Z" fill="#297ea6" stroke="#297ea6"></path><path d="M495 95L462 0L402 0Z" fill="#246688" stroke="#246688"></path><path d="M576 76L462 0L495 95Z" fill="#0c2435" stroke="#0c2435"></path><path d="M402 0L264 0L332 98Z" fill="#277297" stroke="#277297"></path><path d="M564 183L576 76L495 95Z" fill="#112e42" stroke="#112e42"></path><path d="M516 311L624 266L538 234Z" fill="#19435d" stroke="#19435d"></path><path d="M564 183L673 211L576 76Z" fill="#297ea6" stroke="#297ea6"></path><path d="M620 372L624 266L516 311Z" fill="#19435d" stroke="#19435d"></path><path d="M210 438L276 466L328 392Z" fill="#205a7a" stroke="#205a7a"></path><path d="M370 433L420 493L479 403Z" fill="#297ea6" stroke="#297ea6"></path><path d="M221 298L210 438L328 392Z" fill="#0c2435" stroke="#0c2435"></path><path d="M105 417L210 438L221 298Z" fill="#277297" stroke="#277297"></path><path d="M88 215L222 172L102 129Z" fill="#081a28" stroke="#081a28"></path><path d="M88 215L101 267L222 172Z" fill="#081a28" stroke="#081a28"></path><path d="M276 466L420 493L370 433Z" fill="#081a28" stroke="#081a28"></path><path d="M479 403L620 372L516 311Z" fill="#0c2435" stroke="#0c2435"></path><path d="M102 129L222 172L219 118Z" fill="#0c2435" stroke="#0c2435"></path><path d="M180 0L102 129L219 118Z" fill="#112e42" stroke="#112e42"></path><path d="M264 0L180 0L219 118Z" fill="#0c2435" stroke="#0c2435"></path><path d="M535 522L620 372L479 403Z" fill="#297ea6" stroke="#297ea6"></path><path d="M696 311L673 211L624 266Z" fill="#19435d" stroke="#19435d"></path><path d="M624 266L673 211L564 183Z" fill="#1d4e6b" stroke="#1d4e6b"></path><path d="M667 0L606 0L576 76Z" fill="#15384f" stroke="#15384f"></path><path d="M576 76L606 0L462 0Z" fill="#0c2435" stroke="#0c2435"></path><path d="M0 301L105 417L101 267Z" fill="#1d4e6b" stroke="#1d4e6b"></path><path d="M101 267L105 417L221 298Z" fill="#205a7a" stroke="#205a7a"></path><path d="M210 438L182 497L276 466Z" fill="#297ea6" stroke="#297ea6"></path><path d="M105 417L182 497L210 438Z" fill="#112e42" stroke="#112e42"></path><path d="M276 466L338 600L420 493Z" fill="#277297" stroke="#277297"></path><path d="M180 0L112 0L102 129Z" fill="#15384f" stroke="#15384f"></path><path d="M102 129L0 202L88 215Z" fill="#297ea6" stroke="#297ea6"></path><path d="M620 372L696 311L624 266Z" fill="#205a7a" stroke="#205a7a"></path><path d="M420 493L535 522L479 403Z" fill="#277297" stroke="#277297"></path><path d="M620 372L707 438L696 311Z" fill="#277297" stroke="#277297"></path><path d="M474 600L535 522L420 493Z" fill="#081a28" stroke="#081a28"></path><path d="M0 105L0 202L102 129Z" fill="#00101c" stroke="#00101c"></path><path d="M88 215L0 301L101 267Z" fill="#297ea6" stroke="#297ea6"></path><path d="M728 98L667 0L576 76Z" fill="#112e42" stroke="#112e42"></path><path d="M728 98L576 76L673 211Z" fill="#277297" stroke="#277297"></path><path d="M0 202L0 301L88 215Z" fill="#19435d" stroke="#19435d"></path><path d="M820 127L728 98L831 165Z" fill="#246688" stroke="#246688"></path><path d="M535 522L605 519L620 372Z" fill="#081a28" stroke="#081a28"></path><path d="M220 600L338 600L276 466Z" fill="#00101c" stroke="#00101c"></path><path d="M535 522L582 600L605 519Z" fill="#081a28" stroke="#081a28"></path><path d="M338 600L402 600L420 493Z" fill="#112e42" stroke="#112e42"></path><path d="M105 417L79 470L182 497Z" fill="#15384f" stroke="#15384f"></path><path d="M182 497L220 600L276 466Z" fill="#00101c" stroke="#00101c"></path><path d="M0 396L79 470L105 417Z" fill="#19435d" stroke="#19435d"></path><path d="M112 0L0 105L102 129Z" fill="#246688" stroke="#246688"></path><path d="M402 600L474 600L420 493Z" fill="#00101c" stroke="#00101c"></path><path d="M605 519L707 438L620 372Z" fill="#112e42" stroke="#112e42"></path><path d="M696 311L789 323L673 211Z" fill="#19435d" stroke="#19435d"></path><path d="M0 301L0 396L105 417Z" fill="#0c2435" stroke="#0c2435"></path><path d="M71 600L220 600L182 497Z" fill="#1d4e6b" stroke="#1d4e6b"></path><path d="M112 0L0 0L0 105Z" fill="#205a7a" stroke="#205a7a"></path><path d="M707 438L789 323L696 311Z" fill="#205a7a" stroke="#205a7a"></path><path d="M605 519L688 539L707 438Z" fill="#00101c" stroke="#00101c"></path><path d="M474 600L582 600L535 522Z" fill="#19435d" stroke="#19435d"></path><path d="M582 600L688 539L605 519Z" fill="#277297" stroke="#277297"></path><path d="M707 438L836 371L789 323Z" fill="#205a7a" stroke="#205a7a"></path><path d="M820 127L767 0L728 98Z" fill="#246688" stroke="#246688"></path><path d="M728 98L767 0L667 0Z" fill="#15384f" stroke="#15384f"></path><path d="M831 165L728 98L673 211Z" fill="#081a28" stroke="#081a28"></path><path d="M789 323L831 165L673 211Z" fill="#19435d" stroke="#19435d"></path><path d="M0 534L71 600L79 470Z" fill="#112e42" stroke="#112e42"></path><path d="M79 470L71 600L182 497Z" fill="#15384f" stroke="#15384f"></path><path d="M0 396L0 534L79 470Z" fill="#297ea6" stroke="#297ea6"></path><path d="M778 508L836 371L707 438Z" fill="#0c2435" stroke="#0c2435"></path><path d="M900 323L900 161L831 165Z" fill="#00101c" stroke="#00101c"></path><path d="M709 600L778 508L688 539Z" fill="#246688" stroke="#246688"></path><path d="M688 539L778 508L707 438Z" fill="#15384f" stroke="#15384f"></path><path d="M582 600L709 600L688 539Z" fill="#19435d" stroke="#19435d"></path><path d="M0 534L0 600L71 600Z" fill="#277297" stroke="#277297"></path><path d="M900 323L831 165L789 323Z" fill="#081a28" stroke="#081a28"></path><path d="M831 165L900 161L820 127Z" fill="#205a7a" stroke="#205a7a"></path><path d="M820 127L900 76L767 0Z" fill="#112e42" stroke="#112e42"></path><path d="M836 371L900 323L789 323Z" fill="#1d4e6b" stroke="#1d4e6b"></path><path d="M900 383L900 323L836 371Z" fill="#112e42" stroke="#112e42"></path><path d="M900 161L900 76L820 127Z" fill="#15384f" stroke="#15384f"></path><path d="M900 502L836 371L778 508Z" fill="#1d4e6b" stroke="#1d4e6b"></path><path d="M900 502L900 383L836 371Z" fill="#0c2435" stroke="#0c2435"></path><path d="M900 76L900 0L767 0Z" fill="#246688" stroke="#246688"></path><path d="M709 600L829 600L778 508Z" fill="#15384f" stroke="#15384f"></path><path d="M829 600L900 502L778 508Z" fill="#0c2435" stroke="#0c2435"></path><path d="M829 600L900 600L900 502Z" fill="#297ea6" stroke="#297ea6"></path></g></svg>