<svg width="100" height="100" xmlns="http://www.w3.org/2000/svg">

 <g>
  <title>Layer 1</title>
  <rect stroke="null" id="svg_1" fill="#000000" rx="20" height="100" width="100"/>
  <path id="svg_2" d="m32.58,47.92l0,4.22l-16.4,0l0,17.26l-5.16,0l0,-39.1l24.22,0l0,4.24l-19.06,0l0,13.38l16.4,0zm1.88,18.88l0,0q0,-1.29 0.77,-2.15q0.76,-0.86 2.3,-0.86q1.53,0 2.32,0.86q0.79,0.86 0.79,2.15l0,0q0,1.23 -0.79,2.07q-0.79,0.83 -2.32,0.83q-1.54,0 -2.3,-0.83q-0.77,-0.84 -0.77,-2.07zm37.98,2.6l-8.49,-15.81l-9.18,0l0,15.81l-5.19,0l0,-39.1l12.95,0q6.6,0 10.16,3.01q3.56,3.01 3.56,8.75l0,0q0,3.66 -1.97,6.37q-1.98,2.71 -5.49,4.05l0,0l9.18,16.6l0,0.32l-5.53,0zm-17.67,-34.86l0,14.83l7.92,0q3.84,0 6.11,-1.99q2.27,-1.99 2.27,-5.32l0,0q0,-3.62 -2.16,-5.55q-2.17,-1.94 -6.25,-1.97l0,0l-7.89,0zm28.03,32.26l0,0q0,-1.29 0.77,-2.15q0.76,-0.86 2.3,-0.86q1.53,0 2.32,0.86q0.79,0.86 0.79,2.15l0,0q0,1.23 -0.79,2.07q-0.79,0.83 -2.32,0.83q-1.54,0 -2.3,-0.83q-0.77,-0.84 -0.77,-2.07z" fill="#fff"/>
 </g>
</svg>