<svg xmlns="http://www.w3.org/2000/svg" width="256" height="256" viewBox="0 0 100 100"><rect width="100" height="100" rx="20" fill="#000000"></rect><path fill="#fff" d="M32.58 47.92L32.58 52.14L16.18 52.14L16.18 69.40L11.02 69.40L11.02 30.30L35.24 30.30L35.24 34.54L16.18 34.54L16.18 47.92L32.58 47.92ZM34.46 66.80L34.46 66.80Q34.46 65.51 35.23 64.65Q35.99 63.79 37.53 63.79Q39.06 63.79 39.85 64.65Q40.64 65.51 40.64 66.80L40.64 66.80Q40.64 68.03 39.85 68.87Q39.06 69.70 37.53 69.70Q35.99 69.70 35.23 68.87Q34.46 68.03 34.46 66.80ZM72.44 69.40L63.95 53.59L54.77 53.59L54.77 69.40L49.58 69.40L49.58 30.30L62.53 30.30Q69.13 30.30 72.69 33.31Q76.25 36.32 76.25 42.06L76.25 42.06Q76.25 45.72 74.28 48.43Q72.30 51.14 68.79 52.48L68.79 52.48L77.97 69.08L77.97 69.40L72.44 69.40ZM54.77 34.54L54.77 49.37L62.69 49.37Q66.53 49.37 68.80 47.38Q71.07 45.39 71.07 42.06L71.07 42.06Q71.07 38.44 68.91 36.51Q66.74 34.57 62.66 34.54L62.66 34.54L54.77 34.54ZM82.80 66.80L82.80 66.80Q82.80 65.51 83.57 64.65Q84.33 63.79 85.87 63.79Q87.40 63.79 88.19 64.65Q88.98 65.51 88.98 66.80L88.98 66.80Q88.98 68.03 88.19 68.87Q87.40 69.70 85.87 69.70Q84.33 69.70 83.57 68.87Q82.80 68.03 82.80 66.80Z"></path></svg>