<svg width="900" height="450" xmlns="http://www.w3.org/2000/svg" version="1.1">

 <g>
  <title>Layer 1</title>
  <rect id="svg_1" fill="none" height="450" width="900" y="0" x="0"/>
  <path id="svg_2" fill="#005577" d="m0,218l45,0l0,217l45,0l0,-291l45,0l0,168l45,0l0,96l45,0l0,-199l45,0l0,123l45,0l0,-180l45,0l0,75l45,0l0,64l45,0l0,-18l45,0l0,68l45,0l0,-17l45,0l0,-80l45,0l0,88l45,0l0,111l45,0l0,-259l45,0l0,251l45,0l0,-156l45,0l0,113l45,0l0,-105l0,164l0,0l-45,0l0,0l-45,0l0,0l-45,0l0,0l-45,0l0,0l-45,0l0,0l-45,0l0,0l-45,0l0,0l-45,0l0,0l-45,0l0,0l-45,0l0,0l-45,0l0,0l-45,0l0,0l-45,0l0,0l-45,0l0,0l-45,0l0,0l-45,0l0,0l-45,0l0,0l-45,0l0,0l-45,0l0,0l-45,0l0,-233z"/>
  <path id="svg_3" fill="#006487" d="m0,175l45,0l0,178l45,0l0,61l45,0l0,-151l45,0l0,17l45,0l0,-108l45,0l0,109l45,0l0,38l45,0l0,96l45,0l0,-37l45,0l0,-123l45,0l0,-29l45,0l0,93l45,0l0,96l45,0l0,-221l45,0l0,81l45,0l0,-82l45,0l0,47l45,0l0,88l45,0l0,73l45,0l0,-33l0,83l0,0l-45,0l0,0l-45,0l0,0l-45,0l0,0l-45,0l0,0l-45,0l0,0l-45,0l0,0l-45,0l0,0l-45,0l0,0l-45,0l0,0l-45,0l0,0l-45,0l0,0l-45,0l0,0l-45,0l0,0l-45,0l0,0l-45,0l0,0l-45,0l0,0l-45,0l0,0l-45,0l0,0l-45,0l0,0l-45,0l0,-276z"/>
  <path id="svg_4" fill="#007497" d="m0,290l45,0l0,-94l45,0l0,252l45,0l0,-170l45,0l0,69l45,0l0,84l45,0l0,-232l45,0l0,141l45,0l0,-52l45,0l0,-93l45,0l0,141l45,0l0,74l45,0l0,25l45,0l0,-235l45,0l0,10l45,0l0,25l45,0l0,29l45,0l0,0l45,0l0,156l45,0l0,-157l45,0l0,86l0,102l0,0l-45,0l0,0l-45,0l0,0l-45,0l0,0l-45,0l0,0l-45,0l0,0l-45,0l0,0l-45,0l0,0l-45,0l0,0l-45,0l0,0l-45,0l0,0l-45,0l0,0l-45,0l0,0l-45,0l0,0l-45,0l0,0l-45,0l0,0l-45,0l0,0l-45,0l0,0l-45,0l0,0l-45,0l0,0l-45,0l0,-161z"/>
  <path id="svg_5" fill="#0084a6" d="m0,437l45,0l0,-77l45,0l0,-146l45,0l0,199l45,0l0,-43l45,0l0,12l45,0l0,29l45,0l0,-76l45,0l0,-18l45,0l0,14l45,0l0,49l45,0l0,-103l45,0l0,109l45,0l0,-45l45,0l0,-47l45,0l0,74l45,0l0,-84l45,0l0,67l45,0l0,39l45,0l0,-65l45,0l0,-51l0,177l0,0l-45,0l0,0l-45,0l0,0l-45,0l0,0l-45,0l0,0l-45,0l0,0l-45,0l0,0l-45,0l0,0l-45,0l0,0l-45,0l0,0l-45,0l0,0l-45,0l0,0l-45,0l0,0l-45,0l0,0l-45,0l0,0l-45,0l0,0l-45,0l0,0l-45,0l0,0l-45,0l0,0l-45,0l0,0l-45,0l0,-14z"/>
  <path id="svg_6" fill="#0095b5" d="m0,418l45,0l0,-35l45,0l0,-82l45,0l0,-29l45,0l0,44l45,0l0,-58l45,0l0,174l45,0l0,-185l45,0l0,91l45,0l0,96l45,0l0,7l45,0l0,-141l45,0l0,43l45,0l0,84l45,0l0,12l45,0l0,-31l45,0l0,-60l45,0l0,-77l45,0l0,49l45,0l0,-15l45,0l0,-3l0,149l0,0l-45,0l0,0l-45,0l0,0l-45,0l0,0l-45,0l0,0l-45,0l0,0l-45,0l0,0l-45,0l0,0l-45,0l0,0l-45,0l0,0l-45,0l0,0l-45,0l0,0l-45,0l0,0l-45,0l0,0l-45,0l0,0l-45,0l0,0l-45,0l0,0l-45,0l0,0l-45,0l0,0l-45,0l0,0l-45,0l0,-33z"/>
  <path id="svg_7" fill="#00a6c4" d="m0,316l45,0l0,-34l45,0l0,97l45,0l0,40l45,0l0,-57l45,0l0,2l45,0l0,73l45,0l0,-139l45,0l0,135l45,0l0,-49l45,0l0,-116l45,0l0,45l45,0l0,-23l45,0l0,133l45,0l0,-92l45,0l0,1l45,0l0,-40l45,0l0,66l45,0l0,-90l45,0l0,157l45,0l0,-75l0,101l0,0l-45,0l0,0l-45,0l0,0l-45,0l0,0l-45,0l0,0l-45,0l0,0l-45,0l0,0l-45,0l0,0l-45,0l0,0l-45,0l0,0l-45,0l0,0l-45,0l0,0l-45,0l0,0l-45,0l0,0l-45,0l0,0l-45,0l0,0l-45,0l0,0l-45,0l0,0l-45,0l0,0l-45,0l0,0l-45,0l0,-135z"/>
  <path id="svg_8" fill="#00b7d2" d="m0,411l45,0l0,-56l45,0l0,34l45,0l0,35l45,0l0,-122l45,0l0,50l45,0l0,-9l45,0l0,-1l45,0l0,-1l45,0l0,21l45,0l0,4l45,0l0,-28l45,0l0,87l45,0l0,-84l45,0l0,71l45,0l0,-117l45,0l0,17l45,0l0,23l45,0l0,1l45,0l0,28l45,0l0,-37l0,124l0,0l-45,0l0,0l-45,0l0,0l-45,0l0,0l-45,0l0,0l-45,0l0,0l-45,0l0,0l-45,0l0,0l-45,0l0,0l-45,0l0,0l-45,0l0,0l-45,0l0,0l-45,0l0,0l-45,0l0,0l-45,0l0,0l-45,0l0,0l-45,0l0,0l-45,0l0,0l-45,0l0,0l-45,0l0,0l-45,0l0,-40z"/>
  <path id="svg_9" fill="#00c9df" d="m0,354l45,0l0,17l45,0l0,4l45,0l0,-54l45,0l0,11l45,0l0,26l45,0l0,-12l45,0l0,75l45,0l0,-79l45,0l0,72l45,0l0,-68l45,0l0,-4l45,0l0,-24l45,0l0,53l45,0l0,32l45,0l0,-77l45,0l0,103l45,0l0,-50l45,0l0,8l45,0l0,-7l45,0l0,34l0,37l0,0l-45,0l0,0l-45,0l0,0l-45,0l0,0l-45,0l0,0l-45,0l0,0l-45,0l0,0l-45,0l0,0l-45,0l0,0l-45,0l0,0l-45,0l0,0l-45,0l0,0l-45,0l0,0l-45,0l0,0l-45,0l0,0l-45,0l0,0l-45,0l0,0l-45,0l0,0l-45,0l0,0l-45,0l0,0l-45,0l0,-97z"/>
  <path id="svg_10" fill="#03dbeb" d="m0,382l45,0l0,16l45,0l0,15l45,0l0,-21l45,0l0,-20l45,0l0,-21l45,0l0,51l45,0l0,36l45,0l0,-9l45,0l0,14l45,0l0,-89l45,0l0,26l45,0l0,41l45,0l0,-30l45,0l0,33l45,0l0,-43l45,0l0,6l45,0l0,51l45,0l0,-63l45,0l0,0l45,0l0,14l0,62l0,0l-45,0l0,0l-45,0l0,0l-45,0l0,0l-45,0l0,0l-45,0l0,0l-45,0l0,0l-45,0l0,0l-45,0l0,0l-45,0l0,0l-45,0l0,0l-45,0l0,0l-45,0l0,0l-45,0l0,0l-45,0l0,0l-45,0l0,0l-45,0l0,0l-45,0l0,0l-45,0l0,0l-45,0l0,0l-45,0l0,-69z"/>
  <path id="svg_11" fill="#1dedf5" d="m0,376l45,0l0,69l45,0l0,-36l45,0l0,14l45,0l0,-14l45,0l0,16l45,0l0,-51l45,0l0,20l45,0l0,55l45,0l0,-3l45,0l0,-46l45,0l0,45l45,0l0,-1l45,0l0,-34l45,0l0,-24l45,0l0,10l45,0l0,-19l45,0l0,61l45,0l0,-14l45,0l0,-14l45,0l0,28l0,13l0,0l-45,0l0,0l-45,0l0,0l-45,0l0,0l-45,0l0,0l-45,0l0,0l-45,0l0,0l-45,0l0,0l-45,0l0,0l-45,0l0,0l-45,0l0,0l-45,0l0,0l-45,0l0,0l-45,0l0,0l-45,0l0,0l-45,0l0,0l-45,0l0,0l-45,0l0,0l-45,0l0,0l-45,0l0,0l-45,0l0,-75z"/>
  <path id="svg_12" fill="#33ffff" d="m0,430l45,0l0,11l45,0l0,0l45,0l0,6l45,0l0,-3l45,0l0,-3l45,0l0,-39l45,0l0,4l45,0l0,22l45,0l0,-6l45,0l0,27l45,0l0,-30l45,0l0,29l45,0l0,-24l45,0l0,-4l45,0l0,-3l45,0l0,21l45,0l0,-25l45,0l0,30l45,0l0,-10l45,0l0,-21l0,39l0,0l-45,0l0,0l-45,0l0,0l-45,0l0,0l-45,0l0,0l-45,0l0,0l-45,0l0,0l-45,0l0,0l-45,0l0,0l-45,0l0,0l-45,0l0,0l-45,0l0,0l-45,0l0,0l-45,0l0,0l-45,0l0,0l-45,0l0,0l-45,0l0,0l-45,0l0,0l-45,0l0,0l-45,0l0,0l-45,0l0,-21z"/>
 </g>
</svg>