<svg id="visual" viewBox="0 0 960 540" width="960" height="540" xmlns="http://www.w3.org/2000/svg" xmlns:xlink="http://www.w3.org/1999/xlink" version="1.1"><rect x="0" y="0" width="960" height="540" fill="#111"></rect><path d="M0 298L16 297C32 296 64 294 96 294.3C128 294.7 160 297.3 192 307.8C224 318.3 256 336.7 288 334.8C320 333 352 311 384 304.2C416 297.3 448 305.7 480 316.8C512 328 544 342 576 346.2C608 350.3 640 344.7 672 339.2C704 333.7 736 328.3 768 323.8C800 319.3 832 315.7 864 309.3C896 303 928 294 944 289.5L960 285L960 541L944 541C928 541 896 541 864 541C832 541 800 541 768 541C736 541 704 541 672 541C640 541 608 541 576 541C544 541 512 541 480 541C448 541 416 541 384 541C352 541 320 541 288 541C256 541 224 541 192 541C160 541 128 541 96 541C64 541 32 541 16 541L0 541Z" fill="#0066FF" stroke-linecap="round" stroke-linejoin="miter"></path></svg>