<svg id="Capa_1" data-name="Capa 1" xmlns="http://www.w3.org/2000/svg" viewBox="0 0 975.01 397.95"><defs><style>.cls-1{font-size:237px;font-family:AristaProAlternate-Bold, Arista Pro Alternate;font-weight:700;}.cls-1,.cls-7{fill:#73bcff;}.cls-2{letter-spacing:-0.01em;}.cls-3{letter-spacing:-0.02em;}.cls-4{letter-spacing:0em;}.cls-5{letter-spacing:-0.02em;}.cls-6{fill:none;stroke:#73bcff;stroke-miterlimit:10;stroke-width:25px;}</style></defs><text class="cls-1" transform="translate(0 316.36)">Fl<tspan class="cls-2" x="186.66" y="0">o</tspan><tspan class="cls-3" x="307.48" y="0">w</tspan><tspan class="cls-4" x="459.65" y="0">ri</tspan><tspan class="cls-5" x="602.68" y="0">v</tspan><tspan x="710.42" y="0">er</tspan></text><path class="cls-6" d="M834,419.5h73" transform="translate(-211 -202.5)"/><path class="cls-7" d="M832,385.69l225.22-.71,63.78-.21c7.84,0,15.36-6.88,15-15s-6.59-15-15-15l-225.22.72-63.78.2c-7.85,0-15.36,6.88-15,15s6.59,15,15,15Z" transform="translate(-211 -202.5)"/><path class="cls-7" d="M1063,328.5h108c7.85,0,15.36-6.9,15-15s-6.59-15-15-15H1063c-7.85,0-15.36,6.9-15,15s6.59,15,15,15Z" transform="translate(-211 -202.5)"/><path class="cls-7" d="M771,232.5h334c7.85,0,15.36-6.9,15-15s-6.59-15-15-15H771c-7.85,0-15.36,6.9-15,15s6.59,15,15,15Z" transform="translate(-211 -202.5)"/><path class="cls-7" d="M889,328.5h115c7.85,0,15.36-6.9,15-15s-6.59-15-15-15H889c-7.85,0-15.36,6.9-15,15s6.59,15,15,15Z" transform="translate(-211 -202.5)"/><path class="cls-7" d="M850,283.5H965c7.85,0,15.36-6.9,15-15s-6.59-15-15-15H850c-7.85,0-15.36,6.9-15,15s6.59,15,15,15Z" transform="translate(-211 -202.5)"/><path class="cls-7" d="M1016,283.5h115c7.85,0,15.36-6.9,15-15s-6.59-15-15-15H1016c-7.85,0-15.36,6.9-15,15s6.59,15,15,15Z" transform="translate(-211 -202.5)"/></svg>