<svg id="visual" viewBox="0 0 1800 120" width="1800" height="120" xmlns="http://www.w3.org/2000/svg" xmlns:xlink="http://www.w3.org/1999/xlink" version="1.1"><rect x="0" y="0" width="1800" height="120" fill="#111"></rect><defs><linearGradient id="grad1_0" x1="93.3%" y1="100%" x2="100%" y2="0%"><stop offset="-250%" stop-color="#111111" stop-opacity="1"></stop><stop offset="350%" stop-color="#111111" stop-opacity="1"></stop></linearGradient></defs><defs><linearGradient id="grad2_0" x1="0%" y1="100%" x2="6.7%" y2="0%"><stop offset="-250%" stop-color="#111111" stop-opacity="1"></stop><stop offset="350%" stop-color="#111111" stop-opacity="1"></stop></linearGradient></defs><g transform="translate(1800, 120)"><path d="M-120 0C-119.3 -16.6 -118.7 -33.3 -110.9 -45.9C-103 -58.6 -88 -67.2 -75.7 -75.7C-63.3 -84.1 -53.5 -92.4 -41.3 -99.8C-29.2 -107.1 -14.6 -113.6 0 -120L0 0Z" fill="#3bf"></path></g><g transform="translate(0, 0)"><path d="M120 0C116.9 14.5 113.8 29 109 45.2C104.3 61.3 97.9 79 84.9 84.9C71.8 90.7 52 84.8 36.7 88.7C21.5 92.6 10.7 106.3 0 120L0 0Z" fill="#3bf"></path></g></svg>