<svg id="visual" viewBox="0 0 900 600" width="900" height="600" xmlns="http://www.w3.org/2000/svg" xmlns:xlink="http://www.w3.org/1999/xlink" version="1.1"><rect x="0" y="0" width="900" height="600" fill="#111"></rect><path d="M0 446L21.5 445.2C43 444.3 86 442.7 128.8 432.2C171.7 421.7 214.3 402.3 257.2 397.8C300 393.3 343 403.7 385.8 399.7C428.7 395.7 471.3 377.3 514.2 372C557 366.7 600 374.3 642.8 388.8C685.7 403.3 728.3 424.7 771.2 429C814 433.3 857 420.7 878.5 414.3L900 408L900 601L878.5 601C857 601 814 601 771.2 601C728.3 601 685.7 601 642.8 601C600 601 557 601 514.2 601C471.3 601 428.7 601 385.8 601C343 601 300 601 257.2 601C214.3 601 171.7 601 128.8 601C86 601 43 601 21.5 601L0 601Z" fill="#338888"></path><path d="M0 462L21.5 464.3C43 466.7 86 471.3 128.8 469.7C171.7 468 214.3 460 257.2 454C300 448 343 444 385.8 444.2C428.7 444.3 471.3 448.7 514.2 454.5C557 460.3 600 467.7 642.8 463.8C685.7 460 728.3 445 771.2 438.2C814 431.3 857 432.7 878.5 433.3L900 434L900 601L878.5 601C857 601 814 601 771.2 601C728.3 601 685.7 601 642.8 601C600 601 557 601 514.2 601C471.3 601 428.7 601 385.8 601C343 601 300 601 257.2 601C214.3 601 171.7 601 128.8 601C86 601 43 601 21.5 601L0 601Z" fill="#36a5a5"></path><path d="M0 471L21.5 469C43 467 86 463 128.8 461C171.7 459 214.3 459 257.2 456.2C300 453.3 343 447.7 385.8 450.5C428.7 453.3 471.3 464.7 514.2 472C557 479.3 600 482.7 642.8 486.7C685.7 490.7 728.3 495.3 771.2 489C814 482.7 857 465.3 878.5 456.7L900 448L900 601L878.5 601C857 601 814 601 771.2 601C728.3 601 685.7 601 642.8 601C600 601 557 601 514.2 601C471.3 601 428.7 601 385.8 601C343 601 300 601 257.2 601C214.3 601 171.7 601 128.8 601C86 601 43 601 21.5 601L0 601Z" fill="#37c2c2"></path><path d="M0 519L21.5 519C43 519 86 519 128.8 513C171.7 507 214.3 495 257.2 498.8C300 502.7 343 522.3 385.8 528.8C428.7 535.3 471.3 528.7 514.2 522.8C557 517 600 512 642.8 508C685.7 504 728.3 501 771.2 498C814 495 857 492 878.5 490.5L900 489L900 601L878.5 601C857 601 814 601 771.2 601C728.3 601 685.7 601 642.8 601C600 601 557 601 514.2 601C471.3 601 428.7 601 385.8 601C343 601 300 601 257.2 601C214.3 601 171.7 601 128.8 601C86 601 43 601 21.5 601L0 601Z" fill="#36e0e0"></path><path d="M0 545L21.5 543.7C43 542.3 86 539.7 128.8 537.8C171.7 536 214.3 535 257.2 538.5C300 542 343 550 385.8 553.3C428.7 556.7 471.3 555.3 514.2 551.3C557 547.3 600 540.7 642.8 538.5C685.7 536.3 728.3 538.7 771.2 538.3C814 538 857 535 878.5 533.5L900 532L900 601L878.5 601C857 601 814 601 771.2 601C728.3 601 685.7 601 642.8 601C600 601 557 601 514.2 601C471.3 601 428.7 601 385.8 601C343 601 300 601 257.2 601C214.3 601 171.7 601 128.8 601C86 601 43 601 21.5 601L0 601Z" fill="#33ffff"></path></svg>