<svg width="450" height="900" xmlns="http://www.w3.org/2000/svg" version="1.1">

 <g>
  <title>Layer 1</title>
  <path id="svg_2" fill="#338888" d="m0,669l10.7,-1.2c10.6,-1.1 32,-3.5 53.5,-19c21.5,-15.5 43.1,-44.1 64.6,-50.8c21.5,-6.7 42.9,8.7 64.2,2.7c21.3,-6 42.7,-33.4 64,-41.5c21.3,-8.2 42.7,2.8 64.2,24.3c21.5,21.5 43.1,53.5 64.6,60.2c21.5,6.6 42.9,-12 53.5,-21.4l10.7,-9.3l0,288l-10.7,0c-10.6,0 -32,0 -53.5,0c-21.5,0 -43.1,0 -64.6,0c-21.5,0 -42.9,0 -64.2,0c-21.3,0 -42.7,0 -64,0c-21.3,0 -42.7,0 -64.2,0c-21.5,0 -43.1,0 -64.6,0c-21.5,0 -42.9,0 -53.5,0l-10.7,0l0,-232z"/>
  <path id="svg_3" fill="#36a5a5" d="m0,693l10.7,3.5c10.6,3.5 32,10.5 53.5,8c21.5,-2.5 43.1,-14.5 64.6,-23.5c21.5,-9 42.9,-15 64.2,-14.7c21.3,0.4 42.7,7 64,16c21.3,9 42.7,20.4 64.2,14.7c21.5,-5.7 43.1,-28.3 64.6,-38.7c21.5,-10.3 42.9,-8.3 53.5,-7.3l10.7,1l0,249l-10.7,0c-10.6,0 -32,0 -53.5,0c-21.5,0 -43.1,0 -64.6,0c-21.5,0 -42.9,0 -64.2,0c-21.3,0 -42.7,0 -64,0c-21.3,0 -42.7,0 -64.2,0c-21.5,0 -43.1,0 -64.6,0c-21.5,0 -42.9,0 -53.5,0l-10.7,0l0,-208z"/>
  <path id="svg_4" fill="#37c2c2" d="m0,707l10.7,-3c10.6,-3 32,-9 53.5,-12c21.5,-3 43.1,-3 64.6,-7.2c21.5,-4.1 42.9,-12.5 64.2,-8.3c21.3,4.2 42.7,20.8 64,31.7c21.3,10.8 42.7,15.8 64.2,22c21.5,6.1 43.1,13.5 64.6,4c21.5,-9.5 42.9,-35.9 53.5,-49l10.7,-13.2l0,229l-10.7,0c-10.6,0 -32,0 -53.5,0c-21.5,0 -43.1,0 -64.6,0c-21.5,0 -42.9,0 -64.2,0c-21.3,0 -42.7,0 -64,0c-21.3,0 -42.7,0 -64.2,0c-21.5,0 -43.1,0 -64.6,0c-21.5,0 -42.9,0 -53.5,0l-10.7,0l0,-194z"/>
  <path id="svg_5" fill="#36e0e0" d="m0,779l10.7,0.2c10.6,0.1 32,0.5 53.5,-8.5c21.5,-9 43.1,-27.4 64.6,-21.9c21.5,5.5 42.9,34.9 64.2,44.5c21.3,9.7 42.7,-0.3 64,-9c21.3,-8.6 42.7,-16 64.2,-22c21.5,-6 43.1,-10.6 64.6,-15c21.5,-4.3 42.9,-8.3 53.5,-10.3l10.7,-2l0,166l-10.7,0c-10.6,0 -32,0 -53.5,0c-21.5,0 -43.1,0 -64.6,0c-21.5,0 -42.9,0 -64.2,0c-21.3,0 -42.7,0 -64,0c-21.3,0 -42.7,0 -64.2,0c-21.5,0 -43.1,0 -64.6,0c-21.5,0 -42.9,0 -53.5,0l-10.7,0l0,-122z"/>
  <path id="svg_6" fill="#33ffff" d="m0,819l10.7,-2.2c10.6,-2.1 32,-6.5 53.5,-9.5c21.5,-3 43.1,-4.6 64.6,0.7c21.5,5.3 42.9,17.7 64.2,22.8c21.3,5.2 42.7,3.2 64,-3c21.3,-6.1 42.7,-16.5 64.2,-19.8c21.5,-3.3 43.1,0.3 64.6,0c21.5,-0.3 42.9,-4.7 53.5,-6.8l10.7,-2.2l0,102l-10.7,0c-10.6,0 -32,0 -53.5,0c-21.5,0 -43.1,0 -64.6,0c-21.5,0 -42.9,0 -64.2,0c-21.3,0 -42.7,0 -64,0c-21.3,0 -42.7,0 -64.2,0c-21.5,0 -43.1,0 -64.6,0c-21.5,0 -42.9,0 -53.5,0l-10.7,0l0,-82z"/>
 </g>
</svg>